<svg xmlns="http://www.w3.org/2000/svg" viewBox="0 0 283.46 283.46"><defs><style>.cls-1{fill:#ebebeb;}.cls-2{fill:#2876ff;}.cls-3,.cls-4,.cls-6,.cls-7,.cls-8{fill:none;}.cls-3{stroke:#524e5c;stroke-width:9px;}.cls-3,.cls-4,.cls-6,.cls-7{stroke-linejoin:round;}.cls-4,.cls-7{stroke:#fff;stroke-linecap:round;}.cls-4{stroke-width:10px;}.cls-5{fill:#524e5c;}.cls-6{stroke:#2876ff;stroke-width:6px;}.cls-7{stroke-width:4px;}</style></defs><g id="icon"><rect class="cls-2" x="84.09" y="51.82" width="115.28" height="115.28" rx="16.07"/><rect class="cls-3" x="84.09" y="51.82" width="115.28" height="115.28" rx="16.07"/><rect class="cls-1" x="113.27" y="167.1" width="56.92" height="64.86" rx="5.36"/><rect class="cls-3" x="113.27" y="167.1" width="56.92" height="64.86" rx="5.36"/><line class="cls-3" x1="141.73" y1="167.1" x2="141.73" y2="185.6"/><line class="cls-4" x1="182.23" y1="149.96" x2="182.23" y2="149.96"/><line class="cls-4" x1="101.24" y1="149.96" x2="101.24" y2="149.96"/><path class="cls-5" d="M165.42,87.93a25.15,25.15,0,0,0-47.38,0Z"/><rect class="cls-1" x="104.81" y="87.93" width="73.84" height="40.72" rx="5.67"/><polyline class="cls-6" points="116.42 129.79 116.42 100.54 167.05 100.54 167.05 129.79"/><polyline class="cls-7" points="150.69 146.48 141.7 137.5 132.72 146.48"/><line class="cls-7" x1="141.7" y1="147.55" x2="141.7" y2="154.66"/></g><g id="spec"><rect class="cls-8" width="283.46" height="283.46"/></g></svg>