<svg xmlns="http://www.w3.org/2000/svg" viewBox="0 0 283.46 283.46"><defs><style>.cls-1{fill:#ebebeb;}.cls-2{fill:#2876ff;}.cls-3,.cls-4,.cls-6,.cls-7,.cls-8{fill:none;}.cls-3{stroke:#524e5c;stroke-width:9px;}.cls-3,.cls-4,.cls-6,.cls-7{stroke-linejoin:round;}.cls-4,.cls-7{stroke:#fff;}.cls-4,.cls-6,.cls-7{stroke-linecap:round;}.cls-4{stroke-width:10px;}.cls-5{fill:#fff;}.cls-6{stroke:#2876ff;}.cls-6,.cls-7{stroke-width:6px;}</style></defs><g id="icon"><rect class="cls-2" x="84.09" y="116.36" width="115.28" height="115.28" rx="16.07"/><rect class="cls-3" x="84.09" y="116.36" width="115.28" height="115.28" rx="16.07"/><rect class="cls-1" x="113.27" y="51.5" width="56.92" height="64.86" rx="5.36"/><rect class="cls-3" x="113.27" y="51.5" width="56.92" height="64.86" rx="5.36"/><line class="cls-3" x1="141.73" y1="116.36" x2="141.73" y2="97.86"/><line class="cls-4" x1="101.24" y1="133.51" x2="101.24" y2="133.51"/><line class="cls-4" x1="182.23" y1="133.51" x2="182.23" y2="133.51"/><circle class="cls-5" cx="141.73" cy="186.71" r="24.14"/><path class="cls-6" d="M155.11,183.7a16.4,16.4,0,0,1-16.39,16.4"/><line class="cls-7" x1="141.73" y1="148.48" x2="141.73" y2="141.88"/><line class="cls-7" x1="125.58" y1="152.06" x2="122.79" y2="146.08"/><line class="cls-7" x1="112.44" y1="162.14" x2="107.39" y2="157.9"/><line class="cls-7" x1="157.89" y1="152.06" x2="160.68" y2="146.08"/><line class="cls-7" x1="171.02" y1="162.14" x2="176.08" y2="157.9"/></g><g id="spec"><rect class="cls-8" width="283.46" height="283.46"/></g></svg>