<svg xmlns="http://www.w3.org/2000/svg" viewBox="0 0 283.46 283.46"><defs><style>.cls-1{fill:#ebebeb;}.cls-2{fill:#2876ff;}.cls-3,.cls-4,.cls-8,.cls-9{fill:none;}.cls-3{stroke:#524e5c;stroke-width:9px;}.cls-3,.cls-4,.cls-7,.cls-8{stroke-linejoin:round;}.cls-4,.cls-7,.cls-8{stroke:#fff;}.cls-4,.cls-7{stroke-linecap:round;}.cls-4{stroke-width:10px;}.cls-5{fill:#524e5c;}.cls-6{fill:#3b3747;}.cls-7{fill:#fff;}.cls-7,.cls-8{stroke-width:4px;}</style></defs><g id="icon"><rect class="cls-2" x="84.09" y="51.82" width="115.28" height="115.28" rx="16.07"/><rect class="cls-3" x="84.09" y="51.82" width="115.28" height="115.28" rx="16.07"/><rect class="cls-1" x="113.27" y="167.1" width="56.92" height="64.86" rx="5.36"/><rect class="cls-3" x="113.27" y="167.1" width="56.92" height="64.86" rx="5.36"/><line class="cls-3" x1="141.73" y1="167.1" x2="141.73" y2="185.6"/><line class="cls-4" x1="182.23" y1="149.96" x2="182.23" y2="149.96"/><line class="cls-4" x1="101.24" y1="149.96" x2="101.24" y2="149.96"/><path class="cls-5" d="M173.56,98.08a31.83,31.83,0,1,0-62.26,9.33h60.87A31.91,31.91,0,0,0,173.56,98.08Z"/><path class="cls-6" d="M111.3,107.41a31.64,31.64,0,0,0,6,11h48.89a32,32,0,0,0,6-11Z"/><circle class="cls-7" cx="141.73" cy="149.52" r="4.38"/><line class="cls-8" x1="141.73" y1="145.14" x2="141.73" y2="125.85"/><line class="cls-8" x1="151.31" y1="139.07" x2="146.32" y2="139.07"/><line class="cls-8" x1="151.31" y1="127.93" x2="146.32" y2="127.93"/><line class="cls-8" x1="151.31" y1="133.38" x2="146.32" y2="133.38"/></g><g id="spec"><rect class="cls-9" width="283.46" height="283.46"/></g></svg>